<?xml version="1.0" standalone="no"?>
<!DOCTYPE svg PUBLIC "-//W3C//DTD SVG 20010904//EN"
 "http://www.w3.org/TR/2001/REC-SVG-20010904/DTD/svg10.dtd">
<svg version="1.0" xmlns="http://www.w3.org/2000/svg"
 width="920.000000pt" height="312.000000pt" viewBox="0 0 920.000000 312.000000"
 preserveAspectRatio="xMidYMid meet">
<metadata>
Created by potrace 1.16, written by Peter Selinger 2001-2019
</metadata>
<g transform="translate(0.000000,312.000000) scale(0.100000,-0.100000)"
fill="#000000" stroke="none">
<path d="M1720 2959 c-275 -28 -549 -122 -768 -265 -344 -224 -557 -527 -639
-907 -25 -113 -25 -370 0 -484 96 -447 390 -806 832 -1014 497 -234 1125 -219
1595 39 163 89 335 224 438 342 159 183 273 414 318 648 23 118 23 338 1 454
-75 380 -306 709 -657 932 -316 201 -727 294 -1120 255z m1020 -664 l0 -115
-125 0 c-69 0 -125 -4 -125 -8 0 -5 10 -17 21 -28 35 -32 108 -139 143 -211
71 -146 100 -367 67 -518 -29 -135 -110 -294 -194 -382 l-30 -32 119 -3 119
-3 3 -117 3 -116 -418 -4 c-230 -2 -604 -2 -830 0 l-413 3 0 119 0 119 116 3
115 3 -51 64 c-64 80 -112 175 -146 288 -23 75 -27 107 -27 223 -1 100 3 152
16 200 28 100 109 258 166 322 28 31 51 59 51 62 0 3 -54 6 -120 6 l-120 0 0
115 0 114 73 4 c39 1 413 4 830 5 l757 2 0 -115z"/>
<path d="M1710 2147 c-84 -28 -197 -104 -255 -170 -54 -60 -118 -189 -134
-265 -37 -181 16 -392 134 -530 72 -84 237 -181 308 -182 l27 0 0 585 c0 322
-3 585 -7 585 -5 0 -37 -11 -73 -23z"/>
<path d="M2030 1584 l0 -587 38 5 c97 13 243 112 322 216 179 239 153 585 -61
793 -75 73 -175 129 -271 153 l-28 6 0 -586z"/>
<path d="M3620 1590 l0 -600 2660 0 2660 0 0 600 0 600 -2660 0 -2660 0 0
-600z m1650 101 c0 -273 1 -279 59 -268 24 5 30 2 35 -16 17 -63 8 -72 -71
-82 -64 -8 -113 17 -130 65 -8 23 -12 121 -12 293 l-1 257 60 0 60 0 0 -249z
m2840 149 l0 -70 51 0 50 0 -3 -42 -3 -43 -47 -3 -48 -3 0 -113 c0 -131 6
-142 69 -133 39 5 39 4 50 -36 12 -49 9 -51 -66 -68 -41 -9 -62 -9 -93 0 -61
18 -70 44 -70 211 l0 140 -30 0 c-29 0 -30 2 -30 45 0 43 1 45 30 45 l30 0 0
70 0 70 55 0 55 0 0 -70z m-3630 -95 c39 -38 50 -95 50 -270 l0 -145 -60 0
-60 0 0 150 c0 147 -1 152 -25 175 -28 29 -45 31 -85 10 -62 -32 -70 -54 -70
-201 l0 -134 -55 0 -55 0 0 220 0 220 50 0 50 0 0 -37 c1 -32 3 -35 13 -23 59
72 189 91 247 35z m381 24 c19 -7 45 -22 60 -35 33 -31 39 -30 39 6 0 29 1 30
51 30 l50 0 -3 -237 c-3 -237 -3 -238 -30 -284 -66 -113 -260 -143 -378 -58
-22 16 -40 35 -40 42 0 7 14 24 31 36 l31 23 21 -20 c49 -46 139 -56 195 -22
36 22 52 54 52 107 l0 35 -30 -26 c-56 -47 -164 -48 -224 -2 -54 41 -78 89
-84 166 -5 80 8 128 51 177 56 63 134 86 208 62z m846 -4 c89 -27 153 -117
153 -217 l0 -38 -170 0 c-112 0 -170 -4 -170 -10 0 -37 39 -77 92 -93 24 -8
81 10 106 33 17 16 30 19 55 15 18 -4 39 -10 47 -15 21 -13 -11 -54 -67 -87
-41 -24 -59 -28 -123 -28 -64 0 -82 4 -123 28 -26 15 -60 47 -75 69 -24 37
-27 51 -27 128 0 79 2 90 29 128 61 89 160 121 273 87z m502 -15 c22 -13 41
-28 41 -33 0 -5 -9 -22 -21 -38 l-21 -30 -35 23 c-48 29 -129 31 -149 4 -8
-11 -14 -23 -14 -27 0 -17 33 -39 73 -49 80 -20 132 -44 161 -72 26 -26 28
-34 24 -79 -9 -90 -85 -137 -202 -126 -66 6 -154 40 -163 63 -2 7 3 26 12 43
l16 31 48 -25 c89 -45 172 -40 179 11 4 29 -10 38 -111 69 -107 34 -137 60
-137 119 0 55 31 103 83 127 57 27 157 22 216 -11z m609 18 c33 -8 60 -25 92
-57 91 -91 94 -218 8 -316 -96 -108 -285 -94 -366 27 -24 37 -27 51 -27 128 0
79 2 90 29 128 60 86 153 118 264 90z m519 -3 c89 -27 153 -117 153 -217 l0
-38 -170 0 c-112 0 -170 -4 -170 -10 0 -37 39 -77 92 -93 24 -8 81 10 106 33
17 16 30 19 55 15 18 -4 39 -10 47 -15 21 -13 -11 -54 -67 -87 -41 -24 -59
-28 -123 -28 -64 0 -82 4 -123 28 -26 15 -60 47 -75 69 -24 37 -27 51 -27 128
0 79 2 90 29 128 61 89 160 121 273 87z m502 -15 c22 -13 41 -28 41 -33 0 -5
-9 -22 -21 -38 l-21 -30 -35 23 c-48 29 -129 31 -149 4 -8 -11 -14 -23 -14
-27 0 -17 33 -39 73 -49 80 -20 132 -44 161 -72 26 -26 28 -34 24 -79 -9 -90
-85 -137 -202 -126 -66 6 -154 40 -163 63 -2 7 3 26 12 43 l16 31 48 -25 c89
-45 172 -40 179 11 4 29 -10 38 -111 69 -107 34 -137 60 -137 119 0 55 31 103
83 127 57 27 157 22 216 -11z m779 -7 c60 -37 102 -113 102 -184 l0 -49 -170
0 c-144 0 -170 -2 -170 -15 0 -23 52 -75 86 -84 36 -10 102 9 121 35 10 14 18
15 63 4 l51 -12 -24 -32 c-43 -56 -101 -81 -188 -81 -67 0 -81 4 -124 30 -125
77 -141 259 -34 363 69 68 200 79 287 25z m-4608 -193 l0 -220 -55 0 -55 0 0
220 0 220 55 0 55 0 0 -220z"/>
<path d="M4760 1652 c-84 -84 -36 -232 75 -232 34 0 82 25 95 49 16 31 12 133
-6 159 -39 56 -119 68 -164 24z"/>
<path d="M5593 1689 c-33 -10 -73 -55 -73 -83 0 -14 16 -16 110 -16 70 0 110
4 110 10 0 23 -29 66 -52 77 -37 19 -61 22 -95 12z"/>
<path d="M6681 1654 c-88 -74 -41 -234 68 -234 66 0 111 53 111 130 0 107
-104 168 -179 104z"/>
<path d="M7223 1689 c-33 -10 -73 -55 -73 -83 0 -14 16 -16 110 -16 70 0 110
4 110 10 0 23 -29 66 -52 77 -37 19 -61 22 -95 12z"/>
<path d="M8470 1693 c-51 -16 -90 -56 -90 -93 0 -6 40 -10 110 -10 70 0 110 4
110 10 0 20 -30 69 -48 78 -25 13 -65 21 -82 15z"/>
</g>
</svg>
